<?xml version="1.0" encoding="UTF-8"?><svg id="Layer_2" xmlns="http://www.w3.org/2000/svg" viewBox="0 0 67 67"><defs><style>.cls-1,.cls-2{stroke-width:0px;}.cls-2{fill:#febe10;}</style></defs><g id="Layer_1-2"><circle class="cls-2" cx="37.13" cy="30.52" r="27.35"/><path class="cls-1" d="M28.94,46.99c-.56.03-1.01-.18-1.4-.57-2.1-2.1-7.12-6.29-9.21-8.4-.82-.83-.8-2.02,0-2.84.81-.84,2-.9,2.87-.08,1.49,1.4,5.89,4.91,7.35,6.34.31.3.47.33.77-.02,4.11-4.74,14.03-16.43,18.12-21.18.81-.94,2.06-1.04,3.09-.18.79.66.82,1.99.03,2.89-2.17,2.5-10.12,11.97-12.29,14.46-2.56,2.93-5.13,5.85-7.69,8.78-.44.5-.94.84-1.63.8Z"/><path class="cls-1" d="M31.86,67c-.66-.07-1.33-.13-1.99-.2-4.64-.49-8.99-1.9-13.03-4.23-5.56-3.21-9.88-7.65-12.91-13.32C1.1,43.96-.19,38.29.02,32.3.47,19.71,7.92,8.47,19.33,3.14,24.6.68,30.15-.33,35.94.09c13.74,1,25.42,10.28,29.55,23.45.81,2.58,1.28,5.22,1.44,7.92,0,.13.04.27.06.4v3.28c-.02.13-.05.27-.07.4-.21,1.6-.3,3.22-.64,4.79-1.98,9.1-6.89,16.23-14.67,21.34-4.4,2.89-9.25,4.57-14.48,5.13-.66.07-1.33.14-1.99.2h-3.28ZM33.5,63.65c16.61,0,30.12-13.5,30.15-30.12.03-16.62-13.49-30.16-30.13-30.18-16.62-.02-30.15,13.5-30.17,30.14-.01,16.62,13.52,30.16,30.15,30.16Z"/></g></svg>